<svg xmlns="http://www.w3.org/2000/svg" width="23" height="23" viewBox="0 0 23 23" fill="none">
  <path d="M4.5 0H2C0.895431 0 0 0.89543 0 2V9.5H4.5V4.5V0Z" fill="#EAC3BC"/>
  <path d="M23 7.32843C23 6.79799 22.7893 6.28929 22.4142 5.91421L16.5 0V9.5H23V7.32843Z" fill="#EAC3BC"/>
  <path d="M17.5 11H23V9.5H16.5L17.5 11Z" fill="#D9D9D9"/>
  <path d="M4.5 11H17.5L16.5 9.5H4.5V11Z" fill="#D9D9D9"/>
  <path d="M0 11V21C0 22.1046 0.89543 23 2 23H4.5V11H0Z" fill="#EAC3BC"/>
  <path d="M0 11H4.5V9.5H0V11Z" fill="#D9D9D9"/>
  <path d="M21 23C22.1046 23 23 22.1046 23 21V11H17.5V23H21Z" fill="#EAC3BC"/>
  <path d="M14.6315 8.5H5.5V4.5V1H15.5V8.5H14.6315ZM2 1H3.5V4.5V8.5H1V2C1 1.44772 1.44772 1 2 1ZM17.5 8.5V2.41421L21.7071 6.62132C21.8946 6.80886 22 7.06321 22 7.32843V8.5H17.5ZM19.3685 12H22V21C22 21.5523 21.5523 22 21 22H18.5V12H19.3685ZM16.5 12V22H5.5V12H16.5ZM3.5 12V22H2C1.44772 22 1 21.5523 1 21V12H3.5Z" stroke="#EAC3BC" stroke-width="2"/>
</svg>