<svg width="353" height="86" viewBox="0 0 353 86" fill="none" xmlns="http://www.w3.org/2000/svg">
<path d="M16.776 67.864C14.328 67.864 11.784 67.6 9.144 67.072C6.552 66.544 4.032 65.776 1.584 64.768L3.816 51.16H9.864L10.08 59.872L9.144 58.216C10.536 58.84 11.976 59.32 13.464 59.656C15 59.992 16.512 60.16 18 60.16C19.824 60.16 21.504 59.896 23.04 59.368C24.576 58.792 25.8 57.976 26.712 56.92C27.672 55.864 28.152 54.568 28.152 53.032C28.152 51.4 27.648 50.104 26.64 49.144C25.632 48.184 24.312 47.368 22.68 46.696C21.096 46.024 19.392 45.352 17.568 44.68C15.744 44.008 14.016 43.168 12.384 42.16C10.8 41.104 9.48 39.736 8.424 38.056C7.416 36.376 6.912 34.192 6.912 31.504C6.912 27.952 7.8 25 9.576 22.648C11.4 20.296 13.8 18.52 16.776 17.32C19.8 16.072 23.112 15.448 26.712 15.448C29.112 15.448 31.584 15.736 34.128 16.312C36.672 16.84 39.192 17.632 41.688 18.688L39.096 31.216H33.192L32.904 23.44L34.128 24.52C32.88 24.04 31.584 23.68 30.24 23.44C28.896 23.2 27.6 23.08 26.352 23.08C24.672 23.08 23.112 23.32 21.672 23.8C20.232 24.232 19.08 24.928 18.216 25.888C17.352 26.848 16.92 28.024 16.92 29.416C16.92 30.904 17.424 32.104 18.432 33.016C19.488 33.88 20.832 34.648 22.464 35.32C24.096 35.944 25.8 36.616 27.576 37.336C29.4 38.008 31.128 38.872 32.76 39.928C34.392 40.936 35.712 42.304 36.72 44.032C37.776 45.76 38.304 48.016 38.304 50.8C38.304 54.592 37.296 57.76 35.28 60.304C33.312 62.8 30.696 64.696 27.432 65.992C24.216 67.24 20.664 67.864 16.776 67.864ZM58.6839 67.864C55.8999 67.864 53.3799 67.312 51.1239 66.208C48.8679 65.104 47.0679 63.376 45.7239 61.024C44.4279 58.672 43.7799 55.624 43.7799 51.88C43.7799 48.808 44.2599 45.832 45.2199 42.952C46.2279 40.024 47.6439 37.432 49.4679 35.176C51.3399 32.872 53.6199 31.048 56.3079 29.704C58.9959 28.36 62.0439 27.688 65.4519 27.688C69.4839 27.688 72.6279 28.624 74.8839 30.496C77.1879 32.32 78.3399 34.744 78.3399 37.768C78.3399 40.024 77.6919 42.016 76.3959 43.744C75.0999 45.472 73.3479 46.936 71.1399 48.136C68.9799 49.288 66.5079 50.176 63.7239 50.8C60.9879 51.376 58.1319 51.664 55.1559 51.664C54.6279 51.664 54.1479 51.664 53.7159 51.664C53.3319 51.616 52.9719 51.592 52.6359 51.592L53.1399 45.184C53.6679 45.232 54.1719 45.28 54.6519 45.328C55.1799 45.376 55.7079 45.4 56.2359 45.4C57.7239 45.4 59.1879 45.28 60.6279 45.04C62.1159 44.752 63.4359 44.344 64.5879 43.816C65.7879 43.24 66.7479 42.544 67.4679 41.728C68.1879 40.864 68.5479 39.88 68.5479 38.776C68.5479 37.624 68.1399 36.688 67.3239 35.968C66.5559 35.2 65.4759 34.816 64.0839 34.816C62.4039 34.816 60.9159 35.344 59.6199 36.4C58.3719 37.408 57.2919 38.752 56.3799 40.432C55.5159 42.112 54.8439 43.936 54.3639 45.904C53.8839 47.872 53.6439 49.792 53.6439 51.664C53.6439 54.832 54.2919 57.112 55.5879 58.504C56.9319 59.896 58.7079 60.592 60.9159 60.592C62.4999 60.592 64.2039 60.304 66.0279 59.728C67.8519 59.152 69.7479 58.36 71.7159 57.352L74.3079 63.184C71.6679 64.72 69.0039 65.896 66.3159 66.712C63.6759 67.48 61.1319 67.864 58.6839 67.864ZM104.087 65.272C102.119 66.136 100.199 66.784 98.3273 67.216C96.5033 67.648 94.7993 67.864 93.2153 67.864C90.4313 67.864 88.1513 67.12 86.3753 65.632C84.5993 64.144 83.7113 61.768 83.7113 58.504C83.7113 58.024 83.7353 57.568 83.7832 57.136C83.8313 56.656 83.8793 56.128 83.9273 55.552L87.3113 34.024L88.3193 35.32H81.6233L82.5593 29.848L89.8313 28.12L87.9593 29.92L89.6152 20.056L99.7673 18.328L97.8953 29.92L97.1753 28.552H107.759L106.607 35.32H95.9513L97.2473 34.024L93.9353 54.976C93.8873 55.168 93.8393 55.432 93.7913 55.768C93.7913 56.056 93.7913 56.368 93.7913 56.704C93.7913 58 94.0553 58.936 94.5833 59.512C95.1113 60.04 95.8793 60.304 96.8873 60.304C97.5593 60.304 98.3273 60.184 99.1913 59.944C100.103 59.656 101.039 59.296 101.999 58.864L104.087 65.272ZM132.423 65.272C130.455 66.136 128.535 66.784 126.663 67.216C124.839 67.648 123.135 67.864 121.551 67.864C118.767 67.864 116.487 67.12 114.711 65.632C112.935 64.144 112.047 61.768 112.047 58.504C112.047 58.024 112.071 57.568 112.119 57.136C112.167 56.656 112.215 56.128 112.263 55.552L115.647 34.024L116.655 35.32H109.959L110.895 29.848L118.167 28.12L116.295 29.92L117.951 20.056L128.103 18.328L126.231 29.92L125.511 28.552H136.095L134.943 35.32H124.287L125.583 34.024L122.271 54.976C122.223 55.168 122.175 55.432 122.127 55.768C122.127 56.056 122.127 56.368 122.127 56.704C122.127 58 122.391 58.936 122.919 59.512C123.447 60.04 124.215 60.304 125.223 60.304C125.895 60.304 126.663 60.184 127.527 59.944C128.439 59.656 129.375 59.296 130.335 58.864L132.423 65.272ZM138.727 67.36L144.559 30.784L148.159 37.048L138.943 34.024L139.807 28.768L154.855 28.264L149.023 65.056L145.567 58.648L154.711 61.672L153.847 66.928L138.727 67.36ZM150.967 22.72C149.335 22.72 148.039 22.24 147.079 21.28C146.167 20.32 145.711 19.024 145.711 17.392C145.711 15.424 146.311 13.84 147.511 12.64C148.759 11.392 150.319 10.768 152.191 10.768C153.823 10.768 155.095 11.248 156.007 12.208C156.967 13.12 157.447 14.416 157.447 16.096C157.447 18.016 156.847 19.6 155.647 20.848C154.447 22.096 152.887 22.72 150.967 22.72ZM183.412 67.36L187.3 43.24C187.588 41.752 187.66 40.432 187.516 39.28C187.372 38.128 187.036 37.216 186.508 36.544C185.98 35.872 185.164 35.536 184.06 35.536C183.052 35.536 181.996 35.848 180.892 36.472C179.836 37.096 178.804 38.032 177.796 39.28C176.836 40.48 175.972 42.04 175.204 43.96C174.436 45.832 173.86 48.064 173.476 50.656L170.884 67H160.948L166.708 30.784L170.236 37.048L161.092 34.024L161.956 28.768L176.428 28.264L173.764 40.504L170.596 45.976C171.604 41.704 173.092 38.224 175.06 35.536C177.028 32.848 179.188 30.88 181.54 29.632C183.94 28.336 186.22 27.688 188.38 27.688C190.636 27.688 192.532 28.24 194.068 29.344C195.604 30.4 196.684 31.936 197.308 33.952C197.932 35.92 198.004 38.272 197.524 41.008L194.212 61.672L189.964 58.504L199.396 61.528L198.532 66.928L183.412 67.36ZM215.249 84.424C212.897 84.424 210.545 84.184 208.193 83.704C205.841 83.272 203.657 82.696 201.641 81.976L203.657 74.992C205.625 75.664 207.593 76.168 209.561 76.504C211.529 76.888 213.305 77.08 214.889 77.08C217.193 77.08 219.065 76.744 220.505 76.072C221.993 75.4 223.169 74.536 224.033 73.48C224.897 72.424 225.545 71.272 225.977 70.024C226.457 68.776 226.769 67.576 226.913 66.424L228.713 54.832L232.025 49.504C231.209 53.536 229.841 56.92 227.921 59.656C226.049 62.392 223.913 64.456 221.513 65.848C219.161 67.192 216.881 67.864 214.673 67.864C212.753 67.864 210.977 67.36 209.345 66.352C207.761 65.344 206.489 63.784 205.529 61.672C204.569 59.56 204.089 56.8 204.089 53.392C204.089 49.84 204.641 46.528 205.745 43.456C206.849 40.336 208.409 37.6 210.425 35.248C212.441 32.896 214.769 31.048 217.409 29.704C220.097 28.36 223.001 27.688 226.121 27.688C228.185 27.688 230.297 28.024 232.457 28.696C234.617 29.368 236.777 30.472 238.937 32.008L234.617 30.928L236.417 28.552H241.745L235.841 66.28C235.265 69.736 234.329 72.616 233.033 74.92C231.737 77.272 230.153 79.144 228.281 80.536C226.409 81.928 224.369 82.912 222.161 83.488C219.953 84.112 217.649 84.424 215.249 84.424ZM218.705 59.8C219.713 59.8 220.745 59.488 221.801 58.864C222.905 58.192 223.937 57.208 224.897 55.912C225.905 54.568 226.793 52.96 227.561 51.088C228.329 49.168 228.929 46.96 229.361 44.464L230.945 34.456L232.601 37.768C231.401 36.856 230.249 36.208 229.145 35.824C228.041 35.392 226.961 35.176 225.905 35.176C224.177 35.176 222.593 35.656 221.153 36.616C219.761 37.528 218.537 38.8 217.481 40.432C216.425 42.016 215.609 43.84 215.033 45.904C214.505 47.92 214.241 50.032 214.241 52.24C214.241 54.832 214.649 56.752 215.465 58C216.281 59.2 217.361 59.8 218.705 59.8ZM256.589 67.864C254.573 67.864 252.461 67.696 250.253 67.36C248.045 67.072 245.909 66.64 243.845 66.064L245.789 54.4H251.981L251.909 61.384L250.541 59.44C251.501 59.824 252.533 60.136 253.637 60.376C254.741 60.616 255.965 60.736 257.309 60.736C258.797 60.736 260.141 60.568 261.341 60.232C262.589 59.896 263.573 59.392 264.293 58.72C265.013 58.048 265.373 57.232 265.373 56.272C265.373 55.216 264.965 54.352 264.149 53.68C263.333 53.008 262.277 52.432 260.981 51.952C259.685 51.424 258.293 50.896 256.805 50.368C255.365 49.792 253.997 49.096 252.701 48.28C251.405 47.416 250.349 46.336 249.533 45.04C248.717 43.696 248.309 42.016 248.309 40C248.357 37.456 249.101 35.272 250.541 33.448C251.981 31.576 253.973 30.16 256.517 29.2C259.061 28.192 262.013 27.688 265.373 27.688C267.341 27.688 269.429 27.88 271.637 28.264C273.893 28.6 276.101 29.104 278.261 29.776L276.389 40.072H270.197L269.837 34.384L271.493 35.752C270.581 35.368 269.597 35.08 268.541 34.888C267.533 34.696 266.549 34.6 265.589 34.6C264.245 34.6 263.021 34.792 261.917 35.176C260.861 35.512 260.021 35.992 259.397 36.616C258.773 37.192 258.437 37.912 258.389 38.776C258.389 39.736 258.797 40.552 259.613 41.224C260.429 41.896 261.485 42.496 262.781 43.024C264.125 43.504 265.541 44.032 267.029 44.608C268.517 45.184 269.909 45.904 271.205 46.768C272.549 47.632 273.629 48.712 274.445 50.008C275.261 51.304 275.669 52.936 275.669 54.904C275.621 57.544 274.805 59.848 273.221 61.816C271.637 63.736 269.405 65.224 266.525 66.28C263.693 67.336 260.381 67.864 256.589 67.864Z" fill="#801E15"/>
<path fill-rule="evenodd" clip-rule="evenodd" d="M298.875 55.1817C297.771 55.2026 296.885 56.1163 296.992 57.2157C297.215 59.4996 297.745 61.7432 298.569 63.8852C298.965 64.9163 300.167 65.3363 301.164 64.8605L301.908 64.505C302.906 64.0289 304.092 64.4584 304.662 65.4053C305.254 66.3885 305.924 67.3131 306.66 68.1727C307.379 69.0121 307.412 70.2734 306.645 71.0696L306.072 71.6655C305.305 72.4612 305.325 73.7342 306.178 74.4356C307.951 75.8929 309.912 77.1042 312.009 78.0368C313.018 78.4856 314.165 77.9329 314.533 76.8916L314.809 76.1119C315.178 75.0699 316.32 74.5347 317.393 74.8017C318.491 75.075 319.617 75.2593 320.762 75.3484C321.864 75.4341 322.779 76.3025 322.8 77.4077L322.816 78.2329C322.837 79.3373 323.75 80.2237 324.85 80.1164C327.134 79.8933 329.377 79.3629 331.519 78.5397C332.55 78.1434 332.97 76.9416 332.495 75.9448L332.139 75.2001C331.663 74.2026 332.092 73.0162 333.039 72.4461C334.023 71.8539 334.947 71.1847 335.807 70.4484C336.646 69.7293 337.907 69.6963 338.704 70.4629L339.3 71.0368C340.095 71.8029 341.368 71.7836 342.07 70.9303C343.527 69.1576 344.738 67.1962 345.671 65.0994C346.12 64.0901 345.567 62.9433 344.526 62.5749L343.746 62.2991C342.704 61.9304 342.169 60.7879 342.436 59.7153C342.709 58.6175 342.893 57.4912 342.982 56.3465C343.068 55.2444 343.937 54.329 345.042 54.3081L345.867 54.2925C346.971 54.2716 347.858 53.3579 347.75 52.2585C347.527 49.9746 346.997 47.7311 346.174 45.589C345.778 44.558 344.576 44.1379 343.579 44.6137L342.834 44.9692C341.837 45.4454 340.65 45.0159 340.08 44.069C339.488 43.0857 338.819 42.1611 338.082 41.3016C337.363 40.4622 337.33 39.2009 338.097 38.4047L338.671 37.8087C339.437 37.013 339.418 35.7401 338.564 35.0386C336.792 33.5813 334.83 32.37 332.733 31.4374C331.724 30.9886 330.577 31.5413 330.209 32.5827L329.933 33.3624C329.565 34.4044 328.422 34.9396 327.349 34.6726C326.252 34.3993 325.125 34.215 323.981 34.126C322.879 34.0403 321.963 33.1718 321.942 32.0666L321.927 31.2413C321.906 30.1369 320.992 29.2505 319.893 29.3578C317.609 29.5809 315.365 30.1113 313.223 30.9345C312.192 31.3308 311.772 32.5326 312.248 33.5294L312.603 34.2742C313.079 35.2717 312.65 36.458 311.703 37.0282C310.72 37.6203 309.795 38.2896 308.936 39.0259C308.096 39.7449 306.835 39.778 306.039 39.0114L305.443 38.4375C304.647 37.6713 303.374 37.6906 302.673 38.5439C301.215 40.3166 300.004 42.278 299.072 44.3749C298.623 45.3841 299.175 46.5309 300.217 46.8993L300.996 47.1752C302.038 47.5438 302.574 48.6864 302.307 49.7589C302.033 50.8567 301.849 51.983 301.76 53.1277C301.674 54.2298 300.806 55.1452 299.701 55.1661L298.875 55.1817ZM329.987 53.0034C330.945 57.2095 328.311 61.3956 324.105 62.3531C319.899 63.3107 315.713 60.6772 314.755 56.471C313.798 52.2648 316.431 48.0787 320.637 47.1212C324.844 46.1636 329.03 48.7972 329.987 53.0034ZM334.149 52.0559C332.668 45.5513 326.195 41.4787 319.69 42.9595C313.185 44.4403 309.113 50.9137 310.594 57.4183C312.074 63.9229 318.548 67.9955 325.052 66.5147C331.557 65.0339 335.63 58.5605 334.149 52.0559ZM332.724 52.3802C334.026 58.0979 330.446 63.7882 324.728 65.0898C319.01 66.3915 313.32 62.8116 312.019 57.0939C310.717 51.3763 314.297 45.686 320.014 44.3844C325.732 43.0827 331.422 46.6626 332.724 52.3802Z" fill="#C44F6C"/>
<path fill-rule="evenodd" clip-rule="evenodd" d="M289.119 11.7935C288.494 11.3219 287.597 11.4439 287.187 12.1116C286.565 13.1233 286.066 14.2053 285.699 15.3348C285.457 16.0802 285.945 16.8414 286.71 17.0119C287.476 17.1825 287.949 17.9419 287.869 18.722C287.816 19.2302 287.797 19.7383 287.809 20.2436C287.827 21.028 287.295 21.7476 286.518 21.8568C285.742 21.966 285.194 22.6863 285.376 23.4489C285.652 24.6036 286.063 25.7216 286.603 26.7792C286.959 27.4777 287.843 27.6706 288.504 27.2501C289.167 26.8293 290.038 27.0318 290.533 27.6408C290.852 28.0329 291.196 28.4069 291.566 28.7598C292.133 29.3014 292.265 30.1863 291.793 30.8128C291.322 31.4387 291.444 32.3349 292.112 32.7453C293.123 33.3671 294.205 33.8666 295.335 34.2332C296.08 34.4752 296.841 33.9868 297.012 33.2219C297.182 32.4564 297.942 31.9833 298.722 32.0635C299.23 32.1158 299.738 32.1355 300.244 32.1235C301.028 32.105 301.748 32.6372 301.857 33.4142C301.966 34.1906 302.686 34.7382 303.449 34.5562C304.604 34.2806 305.722 33.8688 306.779 33.3296C307.478 32.9735 307.671 32.0895 307.25 31.4278C306.829 30.7657 307.032 29.8939 307.641 29.3992C308.033 29.0806 308.407 28.7361 308.76 28.3666C309.301 27.7994 310.186 27.6668 310.813 28.1387C311.439 28.6104 312.335 28.4884 312.745 27.8206C313.367 26.809 313.867 25.727 314.233 24.5975C314.475 23.852 313.987 23.0908 313.222 22.9203C312.456 22.7497 311.983 21.9903 312.063 21.2102C312.116 20.7021 312.135 20.1939 312.123 19.6887C312.105 18.9043 312.637 18.1846 313.414 18.0754C314.191 17.9662 314.738 17.2459 314.556 16.4833C314.281 15.3286 313.869 14.2107 313.33 13.1531C312.973 12.4546 312.09 12.2616 311.428 12.6821C310.766 13.1029 309.894 12.9004 309.399 12.2915C309.081 11.8994 308.736 11.5254 308.367 11.1726C307.799 10.6309 307.667 9.74594 308.139 9.11953C308.61 8.49357 308.488 7.59738 307.821 7.18698C306.809 6.56516 305.727 6.06566 304.597 5.69902C303.852 5.45703 303.091 5.94545 302.92 6.71042C302.75 7.47589 301.99 7.94897 301.21 7.86873C300.702 7.81648 300.194 7.79683 299.689 7.80875C298.904 7.82726 298.185 7.29506 298.075 6.5181C297.966 5.74166 297.246 5.19401 296.483 5.37607C295.329 5.65171 294.211 6.06346 293.153 6.60266C292.455 6.95877 292.262 7.84271 292.682 8.50442C293.103 9.16656 292.9 10.0384 292.291 10.533C291.899 10.8516 291.525 11.1962 291.172 11.5657C290.631 12.1329 289.746 12.2655 289.119 11.7935ZM304.122 21.9265C303.039 24.2215 300.301 25.2042 298.006 24.1216C295.711 23.0389 294.728 20.3008 295.811 18.0058C296.893 15.7108 299.631 14.728 301.926 15.8107C304.221 16.8934 305.204 19.6315 304.122 21.9265ZM306.392 22.9977C308.066 19.4487 306.547 15.2143 302.998 13.54C299.449 11.8658 295.214 13.3855 293.54 16.9346C291.866 20.4836 293.386 24.7179 296.935 26.3922C300.484 28.0665 304.718 26.5467 306.392 22.9977ZM305.615 22.6309C304.143 25.7506 300.421 27.0865 297.301 25.6148C294.182 24.143 292.846 20.421 294.318 17.3013C295.789 14.1817 299.511 12.8458 302.631 14.3175C305.751 15.7892 307.086 19.5113 305.615 22.6309Z" fill="#C44F6C"/>
</svg>
